<svg width="75" height="75" viewBox="0 0 75 75" fill="none" xmlns="http://www.w3.org/2000/svg">
<circle cx="37.5" cy="37.5" r="36.5" stroke="#E7A580" stroke-width="2"/>
<g clip-path="url(#clip0)">
<path d="M51.8762 18H51.016C50.6596 18 50.3708 18.2889 50.3708 18.6452C50.3708 19.0015 50.6596 19.2903 51.016 19.2903H51.2311V56.7097H51.016C50.6596 56.7097 50.3708 56.9985 50.3708 57.3548C50.3708 57.7111 50.6596 58 51.016 58H51.8762C52.2326 58 52.5214 57.7111 52.5214 57.3548V18.6452C52.5214 18.2889 52.2325 18 51.8762 18Z" fill="#E7A580"/>
<path d="M44.1343 30.043H26.4247C26.0683 30.043 25.7795 30.3318 25.7795 30.6881C25.7795 31.0444 26.0683 31.3333 26.4247 31.3333H44.1342C44.4906 31.3333 44.7794 31.0444 44.7794 30.6881C44.7794 30.3318 44.4906 30.043 44.1343 30.043Z" fill="#E7A580"/>
<path d="M44.1343 40.3657H26.4247C26.0683 40.3657 25.7795 40.6546 25.7795 41.0109C25.7795 41.3672 26.0683 41.656 26.4247 41.656H44.1342C44.4906 41.656 44.7794 41.3672 44.7794 41.0109C44.7794 40.6546 44.4906 40.3657 44.1343 40.3657Z" fill="#E7A580"/>
<path d="M44.1343 43.8064H36.9999C36.6435 43.8064 36.3547 44.0953 36.3547 44.4516C36.3547 44.8079 36.6435 45.0967 36.9999 45.0967H44.1343C44.4906 45.0967 44.7794 44.8079 44.7794 44.4516C44.7794 44.0953 44.4906 43.8064 44.1343 43.8064Z" fill="#E7A580"/>
<path d="M48.4354 18H28.1452C28.1236 18 28.1021 18.0011 28.0808 18.0033C28.0649 18.0049 28.0494 18.0076 28.0339 18.0103C28.0287 18.0113 28.0234 18.0117 28.0182 18.0127C27.9997 18.0164 27.9817 18.0212 27.9638 18.0264C27.9617 18.0271 27.9594 18.0274 27.9572 18.0281C27.939 18.0336 27.9212 18.0403 27.9036 18.0473C27.9017 18.0481 27.8998 18.0486 27.898 18.0494C27.8812 18.0563 27.865 18.0642 27.849 18.0725C27.8463 18.0739 27.8435 18.075 27.8409 18.0764C27.826 18.0844 27.8118 18.0932 27.7976 18.1023C27.794 18.1046 27.7902 18.1065 27.7866 18.1089C27.7734 18.1178 27.7608 18.1275 27.7483 18.1373C27.7442 18.1406 27.7398 18.1433 27.7358 18.1467C27.7209 18.1589 27.7067 18.1719 27.693 18.1855C27.6917 18.1868 27.6903 18.1878 27.689 18.1891L21.6675 24.2106C21.666 24.2121 21.6647 24.2139 21.6631 24.2155C21.65 24.2289 21.6372 24.2428 21.6253 24.2573C21.6215 24.2619 21.6182 24.2669 21.6145 24.2717C21.6052 24.2835 21.596 24.2955 21.5876 24.308C21.5848 24.3123 21.5824 24.3167 21.5797 24.321C21.5711 24.3345 21.5626 24.3481 21.555 24.3623C21.5533 24.3655 21.552 24.3688 21.5503 24.372C21.5423 24.3875 21.5347 24.4032 21.5279 24.4194C21.5269 24.4217 21.5263 24.4241 21.5253 24.4264C21.5184 24.4436 21.512 24.461 21.5066 24.4789C21.5059 24.4811 21.5054 24.4834 21.5048 24.4858C21.4995 24.5036 21.4948 24.5215 21.4912 24.54C21.4901 24.545 21.4897 24.5502 21.4888 24.5553C21.4861 24.5709 21.4833 24.5865 21.4818 24.6025C21.4796 24.6238 21.4785 24.6453 21.4785 24.6669V57.3551C21.4785 57.7114 21.7673 58.0003 22.1237 58.0003H48.4353C48.7917 58.0003 49.0805 57.7114 49.0805 57.3551V18.6452C49.0806 18.2889 48.7917 18 48.4354 18ZM27.5 20.2027V24.0215H23.6813L27.5 20.2027ZM47.7903 56.7097H22.7688V25.3118H28.1452C28.5016 25.3118 28.7903 25.023 28.7903 24.6667V19.2903H47.7902V56.7097H47.7903Z" fill="#E7A580"/>
<path d="M30.7257 25.3118H44.1342C44.4905 25.3118 44.7793 25.0229 44.7793 24.6666C44.7793 24.3103 44.4905 24.0215 44.1342 24.0215H30.7257C30.3693 24.0215 30.0806 24.3103 30.0806 24.6666C30.0806 25.0229 30.3694 25.3118 30.7257 25.3118Z" fill="#E7A580"/>
<path d="M44.1343 33.4839H36.9999C36.6435 33.4839 36.3547 33.7727 36.3547 34.129C36.3547 34.4853 36.6435 34.7742 36.9999 34.7742H44.1343C44.4906 34.7742 44.7794 34.4853 44.7794 34.129C44.7794 33.7727 44.4906 33.4839 44.1343 33.4839Z" fill="#E7A580"/>
<path d="M44.1343 36.9248H36.9999C36.6435 36.9248 36.3547 37.2137 36.3547 37.57C36.3547 37.9263 36.6435 38.2151 36.9999 38.2151H44.1343C44.4906 38.2151 44.7794 37.9263 44.7794 37.57C44.7794 37.2137 44.4906 36.9248 44.1343 36.9248Z" fill="#E7A580"/>
<path d="M33.5591 45.0967C33.9155 45.0967 34.2042 44.8079 34.2042 44.4516C34.2042 44.0953 33.9155 43.8064 33.5591 43.8064H26.4247C26.0683 43.8064 25.7795 44.0953 25.7795 44.4516V51.3333C25.7795 51.6896 26.0683 51.9784 26.4247 51.9784H33.5591C33.9155 51.9784 34.2042 51.6896 34.2042 51.3333V47.0322C34.2042 46.6759 33.9155 46.387 33.5591 46.387C33.2027 46.387 32.9139 46.6759 32.9139 47.0322V50.6881H27.0699V45.0967H33.5591Z" fill="#E7A580"/>
<path d="M26.4247 38.2151H33.5591C33.9155 38.2151 34.2042 37.9263 34.2042 37.57C34.2042 37.2137 33.9155 36.9248 33.5591 36.9248H26.4247C26.0683 36.9248 25.7795 37.2137 25.7795 37.57C25.7795 37.9263 26.0684 38.2151 26.4247 38.2151Z" fill="#E7A580"/>
<path d="M39.8332 50.6882H36.9999C36.6435 50.6882 36.3547 50.9771 36.3547 51.3334C36.3547 51.6897 36.6435 51.9786 36.9999 51.9786H39.8332C40.1896 51.9786 40.4784 51.6897 40.4784 51.3334C40.4784 50.9771 40.1895 50.6882 39.8332 50.6882Z" fill="#E7A580"/>
<path d="M44.1343 47.2473H36.9999C36.6435 47.2473 36.3547 47.5362 36.3547 47.8925C36.3547 48.2488 36.6435 48.5376 36.9999 48.5376H44.1343C44.4906 48.5376 44.7794 48.2488 44.7794 47.8925C44.7794 47.5362 44.4906 47.2473 44.1343 47.2473Z" fill="#B49E90"/>
<path d="M26.4247 34.7742H33.5591C33.9155 34.7742 34.2042 34.4853 34.2042 34.129C34.2042 33.7727 33.9155 33.4839 33.5591 33.4839H26.4247C26.0683 33.4839 25.7795 33.7727 25.7795 34.129C25.7795 34.4853 26.0684 34.7742 26.4247 34.7742Z" fill="#B49E90"/>
</g>
<defs>
<clipPath id="clip0">
<rect width="40" height="40" fill="white" transform="translate(17 18)"/>
</clipPath>
</defs>
</svg>
