<svg width="14" height="14" viewBox="0 0 14 14" fill="none" xmlns="http://www.w3.org/2000/svg">
<g clip-path="url(#clip0)">
<path d="M7.00002 0C3.14019 0 0 3.42575 0 7.63637V11.1364C0 11.3121 0.142466 11.4546 0.318192 11.4546H1.27274V12.7273C1.27274 13.4292 1.84353 14 2.54548 14H3.50002C3.6759 14 3.81821 13.8577 3.81821 13.6818V7.95456C3.81821 7.77869 3.6759 7.63637 3.50002 7.63637H2.54548C1.84356 7.63637 1.27274 8.20716 1.27274 8.90911V7.63637C1.27274 4.12737 3.84211 1.27274 7.00002 1.27274C10.1579 1.27274 12.7273 4.12737 12.7273 7.63637V8.90911C12.7273 8.20716 12.1565 7.63637 11.4546 7.63637H10.5C10.3241 7.63637 10.1818 7.77869 10.1818 7.95456V13.6818C10.1818 13.8577 10.3241 14 10.5 14H11.4546C12.1565 14 12.7273 13.4292 12.7273 12.7273V11.4546H13.6818C13.8576 11.4546 14 11.3121 14 11.1364V7.63637C14 3.42575 10.8598 0 7.00002 0Z" fill="#B49E90"/>
</g>
<defs>
<clipPath id="clip0">
<rect width="14" height="14" fill="white"/>
</clipPath>
</defs>
</svg>
