<svg width="75" height="75" viewBox="0 0 75 75" fill="none" xmlns="http://www.w3.org/2000/svg">
<g clip-path="url(#clip0)">
<path d="M56 36H55.3333V35.3333C55.3307 34.8543 55.0714 34.4136 54.654 34.1787C54.3989 25.1644 47.0179 17.9893 38 17.9893C28.9821 17.9893 21.6011 25.1644 21.346 34.1787C20.9286 34.4136 20.6693 34.8543 20.6667 35.3333V36H20C18.8954 36 18 36.8954 18 38V46C18 47.1046 18.8954 48 20 48H20.6667V48.6667C20.6667 49.403 21.2636 50 22 50H25.3333C26.4379 50 27.3333 49.1046 27.3333 48V36C27.3335 34.9083 26.4582 34.0182 25.3667 34C25.7122 27.2747 31.2659 21.9991 38 21.9991C44.7341 21.9991 50.2878 27.2747 50.6333 34C49.5418 34.0182 48.6665 34.9083 48.6667 36V48C48.6667 49.1046 49.5621 50 50.6667 50H54C54.7364 50 55.3333 49.403 55.3333 48.6667V48H56C57.1046 48 58 47.1046 58 46V38C58 36.8954 57.1046 36 56 36ZM20 46.6667C19.6318 46.6667 19.3333 46.3682 19.3333 46V38C19.3333 37.6318 19.6318 37.3333 20 37.3333H20.6667V46.6667H20ZM26 36V48C26 48.3682 25.7015 48.6667 25.3333 48.6667H22V35.3333H25.3333C25.7015 35.3333 26 35.6318 26 36ZM38 20.6667C30.5353 20.679 24.3922 26.5439 24.034 34H22.6833C23.0651 25.8184 29.8095 19.3814 38 19.3814C46.1905 19.3814 52.9349 25.8184 53.3167 34H51.966C51.6078 26.5439 45.4647 20.679 38 20.6667ZM54 48.6667H50.6667C50.2985 48.6667 50 48.3682 50 48V36C50 35.6318 50.2985 35.3333 50.6667 35.3333H54V48.6667ZM56.6667 46C56.6667 46.3682 56.3682 46.6667 56 46.6667H55.3333V37.3333H56C56.3682 37.3333 56.6667 37.6318 56.6667 38V46Z" fill="#B49E90"/>
<path d="M46.7006 29.42C46.9591 29.4197 47.1941 29.2699 47.3036 29.0358C47.4131 28.8017 47.3774 28.5253 47.212 28.3267C44.9379 25.5859 41.5614 24 38 24C34.4385 24 31.0621 25.5859 28.788 28.3267C28.5523 28.6097 28.5907 29.0301 28.8736 29.2657C29.1566 29.5013 29.577 29.463 29.8126 29.18C31.8334 26.7435 34.8344 25.3335 38 25.3335C41.1655 25.3335 44.1665 26.7435 46.1873 29.18C46.3142 29.3324 46.5023 29.4204 46.7006 29.42Z" fill="#B49E90"/>
<path d="M45.2667 31.242C45.5578 31.0179 45.6126 30.6005 45.3894 30.3087C43.6257 28.0134 40.8954 26.6681 38.0007 26.6681C35.106 26.6681 32.3758 28.0134 30.6121 30.3087C30.4158 30.6006 30.48 30.9947 30.7588 31.2092C31.0375 31.4236 31.435 31.3846 31.6667 31.12C33.1779 29.153 35.5175 28 37.998 28C40.4786 28 42.8182 29.153 44.3294 31.12C44.5537 31.4109 44.9711 31.4655 45.2627 31.242H45.2667Z" fill="#B49E90"/>
<path d="M44.6666 45.3333V35.9999C44.6666 32.318 41.6818 29.3333 37.9999 29.3333C34.318 29.3333 31.3333 32.318 31.3333 35.9999V45.3333C31.3372 48.2433 33.225 50.8159 35.9999 51.6926V53.9999H33.3333C32.2287 53.9999 31.3333 54.8953 31.3333 55.9999V57.3333C31.3333 57.7014 31.6317 57.9999 31.9999 57.9999H43.9999C44.3681 57.9999 44.6666 57.7014 44.6666 57.3333V55.9999C44.6666 54.8953 43.7712 53.9999 42.6666 53.9999H39.9999V51.6926C42.7748 50.8159 44.6626 48.2433 44.6666 45.3333ZM37.9999 30.6666C40.9441 30.6699 43.3299 33.0558 43.3333 35.9999H39.9999C39.6317 35.9999 39.3333 36.2984 39.3333 36.6666C39.3333 37.0348 39.6317 37.3333 39.9999 37.3333H43.3333V38.6666H39.9999C39.6317 38.6666 39.3333 38.9651 39.3333 39.3333C39.3333 39.7014 39.6317 39.9999 39.9999 39.9999H43.3333V41.3333H39.9999C39.6317 41.3333 39.3333 41.6317 39.3333 41.9999C39.3333 42.3681 39.6317 42.6666 39.9999 42.6666H43.3333V43.9999H32.6666V42.6666H35.9999C36.3681 42.6666 36.6666 42.3681 36.6666 41.9999C36.6666 41.6317 36.3681 41.3333 35.9999 41.3333H32.6666V39.9999H35.9999C36.3681 39.9999 36.6666 39.7014 36.6666 39.3333C36.6666 38.9651 36.3681 38.6666 35.9999 38.6666H32.6666V37.3333H35.9999C36.3681 37.3333 36.6666 37.0348 36.6666 36.6666C36.6666 36.2984 36.3681 35.9999 35.9999 35.9999H32.6666C32.6699 33.0558 35.0558 30.6699 37.9999 30.6666ZM32.6666 45.3333H43.3333C43.3333 48.2788 40.9454 50.6666 37.9999 50.6666C35.0544 50.6666 32.6666 48.2788 32.6666 45.3333ZM43.3333 55.9999V56.6666H32.6666V55.9999C32.6666 55.6317 32.9651 55.3333 33.3333 55.3333H42.6666C43.0348 55.3333 43.3333 55.6317 43.3333 55.9999ZM38.6666 53.9999H37.3333V51.9659C37.7765 52.0113 38.2233 52.0113 38.6666 51.9659V53.9999Z" fill="#B49E90"/>
</g>
<circle cx="37.5" cy="37.5" r="36.5" stroke="#B49E90" stroke-width="2"/>
<defs>
<clipPath id="clip0">
<rect width="40" height="40" fill="white" transform="translate(18 18)"/>
</clipPath>
</defs>
</svg>
